<?xml version="1.0" encoding="UTF-8"?>
<svg width="400" height="400" viewBox="0 0 400 400" fill="none" xmlns="http://www.w3.org/2000/svg">
  <!-- Background Circle -->
  <circle cx="200" cy="200" r="190" fill="#ffffff" stroke="#e5e7eb" stroke-width="2"/>
  
  <!-- Main Shield Icon -->
  <g transform="translate(100, 80)">
    <path d="M100 20C70.5 20 46 44.5 46 74C46 103.5 70.5 128 100 128C129.5 128 154 103.5 154 74C154 44.5 129.5 20 100 20Z" fill="#2563EB"/>
    <path fill-rule="evenodd" clip-rule="evenodd" d="M100 32C76.9 32 58 50.9 58 74C58 97.1 76.9 116 100 116C123.1 116 142 97.1 142 74C142 50.9 123.1 32 100 32ZM76 58C76 54.7 78.7 52 82 52C85.3 52 88 54.7 88 58C88 61.3 85.3 64 82 64C78.7 64 76 61.3 76 58ZM112 52C108.7 52 106 54.7 106 58C106 61.3 108.7 64 112 64C115.3 64 118 61.3 118 58C118 54.7 115.3 52 112 52ZM70 82C70 79.8 71.8 78 74 78H126C128.2 78 130 79.8 130 82C130 84.2 128.2 86 126 86H74C71.8 86 70 84.2 70 82Z" fill="white"/>
  </g>
  
  <!-- Company Name -->
  <text x="200" y="260" text-anchor="middle" fill="#1f2937" font-family="Inter, Arial, sans-serif" font-size="36" font-weight="700">DataGuardian</text>
  <text x="200" y="290" text-anchor="middle" fill="#4b5563" font-family="Inter, Arial, sans-serif" font-size="20" font-weight="500">Pro</text>
  
  <!-- Tagline -->
  <text x="200" y="320" text-anchor="middle" fill="#6b7280" font-family="Inter, Arial, sans-serif" font-size="14" font-weight="400">Enterprise Privacy Compliance Platform</text>
  
  <!-- Decorative Elements -->
  <circle cx="80" cy="120" r="3" fill="#2563EB" opacity="0.3"/>
  <circle cx="320" cy="120" r="3" fill="#2563EB" opacity="0.3"/>
  <circle cx="80" cy="280" r="3" fill="#2563EB" opacity="0.3"/>
  <circle cx="320" cy="280" r="3" fill="#2563EB" opacity="0.3"/>
</svg>