<svg width="200" height="60" viewBox="0 0 200 60" xmlns="http://www.w3.org/2000/svg">
  <!-- Background -->
  <rect width="200" height="60" fill="#1f77b4" rx="5"/>
  
  <!-- Shield icon -->
  <g transform="translate(10, 12)">
    <path d="M18 2 C10 2, 2 8, 2 16 C2 24, 10 32, 18 36 C26 32, 34 24, 34 16 C34 8, 26 2, 18 2 Z" 
          fill="white" opacity="0.9"/>
    <path d="M18 6 C14 6, 8 9, 8 16 C8 20, 12 26, 18 30 C24 26, 28 20, 28 16 C28 9, 22 6, 18 6 Z" 
          fill="#1f77b4"/>
    <circle cx="18" cy="16" r="4" fill="white"/>
  </g>
  
  <!-- Text -->
  <text x="50" y="23" font-family="Arial, sans-serif" font-size="14" font-weight="bold" fill="white">
    DataGuardian
  </text>
  <text x="50" y="38" font-family="Arial, sans-serif" font-size="12" font-weight="normal" fill="white" opacity="0.9">
    Pro
  </text>
  
  <!-- Decorative elements -->
  <circle cx="175" cy="15" r="2" fill="white" opacity="0.6"/>
  <circle cx="185" cy="22" r="1.5" fill="white" opacity="0.4"/>
  <circle cx="180" cy="35" r="1" fill="white" opacity="0.5"/>
</svg>