<?xml version="1.0" encoding="UTF-8" standalone="no"?>
<svg width="240" height="80" xmlns="http://www.w3.org/2000/svg">
  <!-- Background shield shape -->
  <path d="M50,10 L80,20 L80,50 C80,65 65,75 50,80 C35,75 20,65 20,50 L20,20 L50,10 Z" 
        fill="#4f46e5" fill-opacity="0.9" />
  
  <!-- Inner shield -->
  <path d="M50,20 L70,26 L70,50 C70,60 60,67 50,70 C40,67 30,60 30,50 L30,26 L50,20 Z" 
        fill="#818cf8" fill-opacity="0.9" />
        
  <!-- Lock icon -->
  <rect x="42" y="40" width="16" height="15" rx="2" ry="2" fill="#ffffff" />
  <rect x="45" y="30" width="10" height="15" rx="5" ry="5" fill="none" stroke="#ffffff" stroke-width="3" />
  
  <!-- Text "DataGuardian Pro" -->
  <text x="95" y="45" font-family="Arial, Helvetica, sans-serif" font-size="22" font-weight="bold" fill="#4f46e5">
    DataGuardian Pro
  </text>
  
  <!-- Tagline -->
  <text x="95" y="60" font-family="Arial, Helvetica, sans-serif" font-size="10" fill="#1e293b">
    Enterprise Privacy Compliance Platform
  </text>
</svg>